Coordinates
version=1
nRows=19
nColumns=24
inDegrees=yes

Units are S.I. units (second, meters, Newtons, ...)
Angles are in degrees.

endheader
time	pelvis_tilt	pelvis_list	pelvis_rotation	pelvis_tx	pelvis_ty	pelvis_tz	hip_flexion_r	hip_adduction_r	hip_rotation_r	knee_angle_r	ankle_angle_r	subtalar_angle_r	mtp_angle_r	hip_flexion_l	hip_adduction_l	hip_rotation_l	knee_angle_l	ankle_angle_l	subtalar_angle_l	mtp_angle_l	lumbar_extension	lumbar_bending	lumbar_rotation
      0.30800000	      1.92044611	      0.58594404	     -1.94344472	     -0.20872267	      1.01106357	      0.13335127	     24.28195118	     -5.73379854	     -7.87109758	    -57.23536200	      5.46338236	     -3.52862910	     26.58881672	     -0.87623706	      4.63642159	    -16.62975093	     -7.38154542	      8.97900117	     12.63972287	     11.67657061	    -11.46176945	     -2.47395039	     -7.34874603
      0.31200000	      1.93608042	      0.52321490	     -1.85264693	     -0.20386460	      1.01108359	      0.13325777	     24.54320697	     -5.57803753	     -7.91200700	    -56.36058198	      5.56975355	     -3.55406631	     26.50876240	     -1.34705175	      4.61384153	    -16.63120423	     -7.12656947	      9.12118727	     12.84548744	     11.16318969	    -11.49394410	     -2.36524715	     -7.55785957
      0.31600000	      1.94800018	      0.46926840	     -1.76581579	     -0.19900581	      1.01105127	      0.13317493	     24.78961612	     -5.42945171	     -7.94906965	    -55.44147113	      5.65748231	     -3.56731240	     26.43348886	     -1.80971692	      4.59911013	    -16.63486103	     -6.87819216	      9.26755123	     13.04488114	     10.62707109	    -11.52071482	     -2.26672262	     -7.76086656
      0.32000000	      1.95627716	      0.42446062	     -1.68360719	     -0.19414635	      1.01096610	      0.13310365	     25.02106080	     -5.28821081	     -7.98179431	    -54.47853179	      5.72752676	     -3.56786388	     26.36589720	     -2.26418520	      4.59272467	    -16.64125229	     -6.63675808	      9.41812863	     13.23767429	     10.07121586	    -11.54221488	     -2.17890357	     -7.95728111
      0.32400000	      1.96104299	      0.38906859	     -1.60662244	     -0.18928625	      1.01082779	      0.13304481	     25.23730551	     -5.15440760	     -8.00982119	    -53.47221602	      5.78088987	     -3.55537604	     26.30875515	     -2.71045712	      4.59510455	    -16.65088309	     -6.40265068	      9.57294795	     13.42365115	      9.49900184	    -11.55865099	     -2.10221549	     -8.14668309
      0.32800000	      1.96248869	      0.36328711	     -1.53539424	     -0.18442549	      1.01063643	      0.13299918	     25.43799077	     -5.02806541	     -8.03294143	    -52.42292035	      5.81859586	     -3.52965345	     26.26463292	     -3.14858046	      4.60658451	    -16.66422186	     -6.17629186	      9.73203126	     13.60261561	      8.91414754	    -11.57030150	     -2.03697559	     -8.32872750
      0.33200000	      1.96086426	      0.34722796	     -1.47037333	     -0.17956397	      1.01039250	      0.13296741	     25.62262744	     -4.90915001	     -8.05111813	    -51.33098254	      5.84166397	     -3.49063281	     26.23584769	     -3.57865084	      4.62741025	    -16.68169119	     -5.95813875	      9.89539367	     13.77439926	      8.32066814	    -11.57751351	     -1.98338900	     -8.50315298
      0.33600000	      1.95647818	      0.34092178	     -1.41191629	     -0.17470150	      1.01009685	      0.13295001	     25.79059253	     -4.79758505	     -8.06450847	    -50.19668166	      5.85107986	     -3.43835834	     26.22441743	     -4.00081334	      4.65773685	    -16.70366029	     -5.74867776	     10.06304168	     13.93887189	      7.72282423	    -11.58069892	     -1.94154877	     -8.66978938
      0.34000000	      1.94969633	      0.34432294	     -1.36027498	     -0.16983781	      1.00975058	      0.13294732	     25.94112802	     -4.69327047	     -8.07348639	    -49.02024271	      5.84776527	     -3.37295106	     26.23202377	     -4.41526482	      4.69762996	    -16.73043960	     -5.54841624	     10.23497089	     14.09595410	      7.12506408	    -11.58032906	     -1.91143995	     -8.82856389
      0.34400000	      1.94093999	      0.35731775	     -1.31558813	     -0.16497252	      1.00935496	      0.13295950	     26.07334420	     -4.59610246	     -8.07866479	    -47.80184733	      5.83254699	     -3.29457314	     26.25998423	     -4.82225674	      4.74706999	    -16.76227737	     -5.35787239	     10.41116333	     14.24563151	      6.53196049	    -11.57692784	     -1.89294784	     -8.97950573
      0.34800000	      1.93068267	      0.37973612	     -1.27787556	     -0.16010512	      1.00891134	      0.13298651	     26.18622948	     -4.50599349	     -8.08091605	    -46.54165205	      5.80612631	     -3.20338931	     26.30923334	     -5.22209792	      4.80595876	    -16.79935829	     -5.17756382	     10.59158465	     14.38797012	      5.94814350	    -11.57106361	     -1.88587009	     -9.12274908
      0.35200000	      1.91944526	      0.41136544	     -1.24703560	     -0.15523495	      1.00842112	      0.13302813	     26.27866786	     -4.42289068	     -8.08138928	    -45.23981584	      5.76905075	     -3.09952748	     26.38031255	     -5.61515688	      4.87412851	    -16.84180393	     -5.00799558	     10.77618178	     14.52313188	      5.37823056	    -11.56333998	     -1.88993249	     -9.25853387
      0.35600000	      1.90778928	      0.45196531	     -1.22284594	     -0.15036120	      1.00788585	      0.13308392	     26.34946540	     -4.34679099	     -8.08152223	    -43.89653849	      5.72168985	     -2.98304101	     26.47336827	     -6.00186311	      4.95135261	    -16.88967473	     -4.84964828	     10.96488102	     14.65138984	      4.82675567	    -11.55438593	     -1.90480763	     -9.38720451
      0.36000000	      1.89630869	      0.50128200	     -1.20496798	     -0.14548286	      1.00730722	      0.13315329	     26.39738640	     -4.27775110	     -8.08304607	    -42.51211110	      5.66421723	     -2.85387541	     26.58815772	     -6.38270726	      5.03735718	    -16.94297304	     -4.70296704	     11.15758695	     14.77314176	      4.29809946	    -11.54484554	     -1.93013539	     -9.50920614
      0.36400000	      1.88562092	      0.55906189	     -1.19295462	     -0.14059872	      1.00668714	      0.13323548	     26.42119960	     -4.21589042	     -8.08798071	    -41.08697934	      5.59660095	     -2.71184207	     26.72406190	     -6.75823948	      5.13183261	    -17.00164685	     -4.56835215	     11.35418213	     14.88892147	      3.79642203	    -11.53536751	     -1.96554390	     -9.62507830
      0.36800000	      1.87635771	      0.62506315	     -1.18626121	     -0.13570738	      1.00602771	      0.13332965	     26.41973355	     -4.16138574	     -8.09861873	    -39.62181938	      5.51860439	     -2.55660166	     26.88010494	     -7.12906561	      5.23444359	    -17.06559359	     -4.44615171	     11.55452753	     14.99940671	      3.32560049	    -11.52659452	     -2.01066934	     -9.73544602
      0.37200000	      1.86915551	      0.69906501	     -1.18425892	     -0.13080723	      1.00533114	      0.13343488	     26.39193972	     -4.11445680	     -8.11749600	    -38.11762557	      5.42979912	     -2.38765945	     27.05497931	     -7.49584094	      5.34483663	    -17.13466372	     -4.33665721	     11.75846346	     15.10542281	      2.88917318	    -11.51915223	     -2.06517270	     -9.84100811
      0.37600000	      1.86464502	      0.78087373	     -1.18625007	     -0.12589651	      1.00459965	      0.13355025	     26.33696106	     -4.07534296	     -8.14734760	    -36.57580721	      5.32959128	     -2.20437431	     27.24707584	     -7.85926142	      5.46264383	    -17.20866353	     -4.24010224	     11.96581061	     15.20794127	      2.49029237	    -11.51363789	     -2.12875189	     -9.94252290
      0.38000000	      1.86343977	      0.87032476	     -1.19148450	     -0.12097333	      1.00383537	      0.13367488	     26.25420320	     -4.04427229	     -8.19104822	    -34.99829112	      5.21726179	     -2.00598262	     27.45451804	     -8.22005205	      5.58748173	    -17.28735693	     -4.15666444	     12.17637068	     15.30807256	      2.13168720	    -11.51060844	     -2.20114781	    -10.04079147
